<svg height="300px" width="300px" fill="#828282" xmlns="http://www.w3.org/2000/svg" xmlns:xlink="http://www.w3.org/1999/xlink" version="1.1" x="0px" y="0px" viewBox="0 0 70 70" style="enable-background:new 0 0 70 70;" xml:space="preserve"><style type="text/css">
	.st0{stroke:#828282;stroke-width:2;stroke-linecap:round;stroke-linejoin:round;stroke-miterlimit:10;}
</style><g><g><path d="M35.0100098,10C21.2199707,10,10,21.2202148,10,35.0102539C10,48.7900391,21.2199707,60,35.0100098,60    C48.789978,60,60,48.7900391,60,35.0102539C60,21.2202148,48.789978,10,35.0100098,10z M47.6400146,36H36v11.6401367    c0,0.5500488-0.4400024,1-1,1c-0.5499878,0-1-0.4499512-1-1V36H22.3699951c-0.5499878,0-1-0.4399414-1-1    c0-0.5498047,0.4500122-1,1-1H34V22.3701172c0-0.5500488,0.4500122-1,1-1c0.5599976,0,1,0.4499512,1,1V34h11.6400146    c0.5499878,0,1,0.4501953,1,1C48.6400146,35.5600586,48.1900024,36,47.6400146,36z"/></g></g></svg>