<svg height="300px" width="300px" fill="#c0c5cc" xmlns="http://www.w3.org/2000/svg" xmlns:xlink="http://www.w3.org/1999/xlink" version="1.1" x="0px" y="0px" viewBox="0 0 100 100" style="enable-background:new 0 0 100 100;" xml:space="preserve"><path d="M70.1,63.7l-1.9-1.9c-1.5-1.5-2.3-3.4-2.3-5.5V40c0-8.8-7.2-16-16-16s-16,7.2-16,16v16.4c0,2.1-0.8,4-2.3,5.5l-1.9,1.9  c-1.1,1.1-1.4,2.6-0.8,4S31,70,32.5,70h9.6c0.5,3.9,3.9,7,7.9,7s7.4-3.1,7.9-7h9.6c1.5,0,2.8-0.9,3.4-2.3S71.2,64.8,70.1,63.7z   M50,75c-3,0-5.4-2.2-5.9-5h11.8C55.4,72.8,53,75,50,75z M69.1,67c-0.3,0.6-0.8,1-1.6,1h-35c-0.7,0-1.3-0.4-1.6-1  c-0.3-0.6-0.1-1.3,0.4-1.8l1.9-1.9C35,61.4,36,59,36,56.4V40c0-7.7,6.3-14,14-14s14,6.3,14,14v16.4c0,2.6,1,5,2.8,6.9l1.9,1.9  C69.2,65.6,69.4,66.3,69.1,67z"/></svg>