<svg height="300px" width="300px" fill="#c0c5cc" xmlns="http://www.w3.org/2000/svg" xmlns:xlink="http://www.w3.org/1999/xlink" version="1.1" x="0px" y="0px" viewBox="0 0 55 55" style="enable-background:new 0 0 55 55;" xml:space="preserve"><g><path d="M50.9174805,9.0834961c-0.0111084-0.0111694-0.0262451-0.0146484-0.0377808-0.0251465   C50.5203247,8.7143555,50.0357056,8.5,49.5,8.5h-44c-0.5349731,0-1.0188599,0.2138672-1.3781128,0.5570679   C4.1101685,9.067749,4.0947876,9.071228,4.0834961,9.0825195C4.0723267,9.093689,4.0689087,9.1087646,4.0583496,9.1203003   C3.7143555,9.4796143,3.5,9.9642944,3.5,10.5v34c0,0.5354004,0.2141113,1.0196533,0.5577393,1.3789673   c0.0105591,0.0115967,0.0140381,0.0267944,0.0252686,0.0380249s0.0264282,0.0147095,0.0380249,0.0252686   C4.4803467,46.2858887,4.9645996,46.5,5.5,46.5h44c0.5159302,0,0.9821777-0.2014771,1.3372803-0.5233154   c0.0185547-0.0160522,0.0420532-0.0220337,0.0596924-0.0396729c0.0062866-0.0062866,0.0080566-0.0148926,0.0141602-0.0213013   C51.2745972,45.5534058,51.5,45.0526733,51.5,44.5v-34c0-0.5350342-0.2138672-1.0189819-0.5571289-1.3782349   C50.932251,9.1100464,50.928772,9.0947876,50.9174805,9.0834961z M5.5,11.9153442l15.5783081,15.5922852L5.5,43.0859375V11.9153442   z M31.7747803,26.7949829c-0.003479,0.0033569-0.0081787,0.0043335-0.0115967,0.0077515s-0.0043335,0.0081177-0.0076904,0.0115967   l-4.2755127,4.2716064L6.9127808,10.5h41.171875L31.7747803,26.7949829z M22.4917603,28.9223022l3.9310913,3.9346313   c0.2915039,0.2915039,0.6743164,0.4375,1.0571289,0.4375s0.765625-0.1459961,1.0571289-0.4375l3.9348755-3.9313354L48.0459595,44.5   H6.9140625L22.4917603,28.9223022z M33.8866577,27.512146L49.500061,11.9127197l0.0013428,31.2145996L33.8866577,27.512146z"/></g></svg>