<svg height="300px" width="300px" fill="#c0c5cc" xmlns="http://www.w3.org/2000/svg" viewBox="0 0 64 64" x="0px" y="0px"><g><path d="M32,28a6,6,0,1,0-6-6A6.006,6.006,0,0,0,32,28Zm0-10a4,4,0,1,1-4,4A4,4,0,0,1,32,18Z"/><path d="M22,49a1.014,1.014,0,0,0,.316-.051,1,1,0,0,0,.674-.807l.755-5.284A1,1,0,0,1,24.734,42H27.78l-.76,3.8A1,1,0,0,0,28,47h8a1,1,0,0,0,.98-1.2L36.22,42h3.046a1,1,0,0,1,.989.859l.755,5.283a1,1,0,0,0,.674.807A1.014,1.014,0,0,0,42,49a1,1,0,0,0,.707-.293,12.768,12.768,0,0,0-1.029-18.992l.01-.029a24.479,24.479,0,0,0-9.107-27.5,1,1,0,0,0-1.162,0,24.479,24.479,0,0,0-9.107,27.5l.01.029a12.768,12.768,0,0,0-1.029,18.992A1,1,0,0,0,22,49Zm12.78-4H29.22l.6-3h4.36Zm9.637-6.228a10.746,10.746,0,0,1-1.749,6.837l-.433-3.033A3.014,3.014,0,0,0,39.266,40h-.894l2.648-8.238A10.783,10.783,0,0,1,44.417,38.772ZM32,4.243A22.562,22.562,0,0,1,37.912,11H26.088A22.562,22.562,0,0,1,32,4.243ZM25.082,13H38.918a22.485,22.485,0,0,1,.865,16.073l-.22.685h0L36.271,40H27.729L24.437,29.758h0l-.22-.685A22.485,22.485,0,0,1,25.082,13Zm-5.5,25.772a10.783,10.783,0,0,1,3.4-7.01L25.628,40h-.894a3.014,3.014,0,0,0-2.969,2.576l-.433,3.033A10.746,10.746,0,0,1,19.583,38.772Z"/><path d="M10,62h2A9.935,9.935,0,0,0,9.9,55.886,6.02,6.02,0,0,1,12.386,53.6c.01,0,.021,0,.031-.01A5.933,5.933,0,0,1,15,53a6.013,6.013,0,0,1,4.875,2.532A7.469,7.469,0,0,0,19,59h2a5.411,5.411,0,0,1,.833-2.889l-.006,0c.014-.019.033-.033.047-.053A4.983,4.983,0,0,1,28,54.3v2.62h2v-8H28v3.26a6.934,6.934,0,0,0-6.88,1.682A8.025,8.025,0,0,0,15,51a7.875,7.875,0,0,0-2.153.3A9.949,9.949,0,0,0,3,43H2v2H3a7.954,7.954,0,0,1,7.937,7.142,8.015,8.015,0,0,0-2.471,2.243A9.95,9.95,0,0,0,2,52v2A8.009,8.009,0,0,1,10,62Z"/><path d="M51.153,51.3A7.875,7.875,0,0,0,49,51a8.025,8.025,0,0,0-6.12,2.859A6.934,6.934,0,0,0,36,52.177v-3.26H34v8h2V54.3a4.983,4.983,0,0,1,6.126,1.757c.014.02.033.034.047.053l-.006,0A5.411,5.411,0,0,1,43,59h2a7.469,7.469,0,0,0-.875-3.468A6.013,6.013,0,0,1,49,53a5.933,5.933,0,0,1,2.583.592c.01.005.021.006.031.01a6.02,6.02,0,0,1,2.491,2.284A9.935,9.935,0,0,0,52,62h2a8.009,8.009,0,0,1,8-8V52a9.952,9.952,0,0,0-6.466,2.385,8.015,8.015,0,0,0-2.471-2.243A7.954,7.954,0,0,1,61,45h1V43H61A9.949,9.949,0,0,0,51.153,51.3Z"/><rect x="27" y="31" width="2" height="2"/><rect x="31" y="31" width="2" height="2"/><rect x="35" y="31" width="2" height="2"/><rect x="13" y="55" width="2" height="2"/><rect x="2" y="39" width="2" height="2"/><rect x="58" y="48" width="2" height="2"/><rect x="50" y="44" width="2" height="2"/><rect x="39" y="60" width="2" height="2"/><rect x="60" y="37" width="2" height="2"/></g></svg>