<svg height="300px" width="300px" fill="#c0c5cc" xmlns="http://www.w3.org/2000/svg" xmlns:xlink="http://www.w3.org/1999/xlink" version="1.1" x="0px" y="0px" viewBox="0 0 100 100" enable-background="new 0 0 100 100" xml:space="preserve"><g><g><path d="M50.003,58.367c-8.179,0-14.834-6.655-14.834-14.834S41.823,28.7,50.003,28.7s14.833,6.653,14.833,14.833    S58.182,58.367,50.003,58.367z M50.003,31.281c-6.757,0-12.253,5.497-12.253,12.252c0,6.757,5.497,12.253,12.253,12.253    c6.755,0,12.252-5.497,12.252-12.253C62.254,36.778,56.758,31.281,50.003,31.281z"/><g><path d="M50,90c-9.181,0-17.821-3.034-24.986-8.774l1.613-2.014c6.702,5.369,14.785,8.207,23.373,8.207     c8.591,0,16.675-2.839,23.377-8.211l1.613,2.014C67.825,86.964,59.185,90,50,90z"/><path d="M26.619,82.513l-1.605-1.287C15.472,73.582,10,62.2,10,50c0-22.055,17.944-40,40-40s40,17.944,40,40     c0,12.199-5.471,23.579-15.01,31.223l-1.605,1.287l-0.459-2.005c-2.465-10.755-11.891-18.266-22.924-18.266     c-11.035,0-20.461,7.513-22.925,18.27L26.619,82.513z M50,12.581c-20.633,0-37.42,16.786-37.42,37.419     c0,10.747,4.54,20.815,12.524,27.926c3.39-10.856,13.351-18.269,24.898-18.269c11.545,0,21.506,7.412,24.897,18.265     C82.881,70.813,87.42,60.746,87.42,50C87.42,29.367,70.633,12.581,50,12.581z"/></g></g></g></svg>